<svg width="867" height="606" viewBox="0 0 867 606" fill="none" xmlns="http://www.w3.org/2000/svg">
<g clip-path="url(#clip0_30_3)">
<path d="M731.469 420.659C730.571 419.667 729.902 418.491 729.509 417.213C729.115 415.936 729.007 414.587 729.191 413.263C729.375 411.938 729.847 410.67 730.574 409.548C731.302 408.426 732.266 407.477 733.399 406.768L726.148 375.086L741.966 381.004L746.428 410.182C747.493 412.166 747.793 414.471 747.272 416.661C746.751 418.851 745.445 420.773 743.601 422.065C741.757 423.356 739.504 423.926 737.268 423.667C735.032 423.408 732.968 422.337 731.469 420.659V420.659Z" fill="#FFB8B8"/>
<path d="M730.374 395.514L716.468 368.629L718.349 300.932L719.242 302.815C720.283 305.008 744.682 356.661 742.942 373.953L745.731 389.755L730.374 395.514Z" fill="#3F3D56"/>
<path d="M721.307 594.201H732.458L737.762 551.192L721.305 551.193L721.307 594.201Z" fill="#FFB8B8"/>
<path d="M718.463 590.561L740.422 590.56H740.424C744.135 590.56 747.694 592.034 750.318 594.659C752.943 597.283 754.417 600.842 754.417 604.554V605.008L718.463 605.01L718.463 590.561Z" fill="#2F2E41"/>
<path d="M611.134 585.727L621.877 588.714L638.511 548.699L622.655 544.29L611.134 585.727Z" fill="#FFB8B8"/>
<path d="M609.369 581.458L630.525 587.34L630.527 587.341C634.102 588.335 637.137 590.709 638.962 593.941C640.787 597.172 641.254 600.996 640.259 604.572L640.138 605.01L605.498 595.379L609.369 581.458Z" fill="#2F2E41"/>
<path d="M710.19 577.434L687.686 416.308L639.082 576.523L600.865 563.473L655.639 348.941L656 348.915L713.38 344.924L754.837 564.412L710.19 577.434Z" fill="#2F2E41"/>
<path d="M704.238 273.015C704.238 273.015 683.319 262.101 655.125 266.649C655.125 266.649 640.118 302.854 655.125 317.266L659.217 353.507C659.217 353.507 697.417 376.245 710.15 349.869L708.331 319.855C708.331 319.855 717.426 305.46 710.15 294.922C705.789 288.485 703.708 280.773 704.238 273.015V273.015Z" fill="#6C63FF"/>
<path d="M706.888 437.857L710.56 361.669L700.169 271.035L700.646 270.963C714.277 268.907 718.648 292.39 718.828 293.391L742.554 427.533L706.888 437.857Z" fill="#3F3D56"/>
<path d="M660.632 438.651L618.688 433.99L618.699 433.532C618.848 427.322 622.458 281.328 632.574 270.988C642.749 260.587 661.951 265.087 662.763 265.285L663.168 265.382L659.717 327.159L660.632 438.651Z" fill="#3F3D56"/>
<path d="M668.357 351.393C667.086 351.81 665.74 351.943 664.413 351.784C663.085 351.624 661.809 351.175 660.673 350.469C659.538 349.762 658.572 348.815 657.842 347.695C657.112 346.575 656.637 345.308 656.45 343.984L624.555 337.735L636.39 325.686L664.864 333.468C667.108 333.301 669.337 333.963 671.126 335.329C672.915 336.694 674.141 338.669 674.572 340.879C675.003 343.088 674.608 345.379 673.462 347.317C672.317 349.255 670.5 350.705 668.357 351.393V351.393Z" fill="#FFB8B8"/>
<path d="M651.337 344.079L640.944 341.845C625.602 346.459 598.822 330.215 587.998 323C585.962 321.642 585.301 318.952 586.035 315.006C587.118 309.486 590.161 304.544 594.602 301.091L632.721 270.866L642.343 269.257L645.201 285.452L620.914 311.538L656.666 330.998L651.337 344.079Z" fill="#3F3D56"/>
<path d="M647.226 252.938V231.938C647.226 223.053 650.756 214.533 657.038 208.25C663.321 201.968 671.842 198.438 680.726 198.438C689.611 198.438 698.132 201.968 704.414 208.25C710.697 214.533 714.226 223.053 714.226 231.938V252.938C714.225 254.131 713.75 255.275 712.907 256.119C712.063 256.962 710.919 257.437 709.726 257.438H651.726C650.533 257.437 649.389 256.962 648.546 256.119C647.702 255.275 647.228 254.131 647.226 252.938V252.938Z" fill="#2F2E41"/>
<path d="M679.38 257.232C692.945 257.232 703.941 246.235 703.941 232.671C703.941 219.106 692.945 208.109 679.38 208.109C665.815 208.109 654.819 219.106 654.819 232.671C654.819 246.235 665.815 257.232 679.38 257.232Z" fill="#FFB8B8"/>
<path d="M654.145 232.576C653.91 232.305 653.736 231.987 653.635 231.643C653.534 231.299 653.508 230.938 653.56 230.583L656.469 210.323C656.527 209.911 656.686 209.519 656.933 209.184C657.18 208.849 657.507 208.581 657.883 208.404C672.734 201.454 687.793 201.445 702.644 208.378C703.037 208.564 703.376 208.85 703.627 209.207C703.877 209.564 704.031 209.98 704.072 210.414L706.014 230.7C706.048 231.047 706.008 231.397 705.898 231.727C705.788 232.058 705.61 232.362 705.376 232.62C705.142 232.878 704.856 233.084 704.537 233.225C704.219 233.366 703.874 233.438 703.526 233.438H698.6C698.125 233.437 697.659 233.301 697.258 233.046C696.857 232.79 696.537 232.426 696.335 231.996L694.209 227.441C694.071 227.146 693.842 226.904 693.554 226.751C693.267 226.598 692.938 226.543 692.616 226.594C692.295 226.644 691.999 226.798 691.772 227.032C691.546 227.265 691.402 227.566 691.361 227.889L690.941 231.248C690.865 231.852 690.571 232.408 690.115 232.811C689.658 233.215 689.07 233.437 688.461 233.438H656.034C655.676 233.438 655.322 233.361 654.996 233.213C654.67 233.064 654.379 232.847 654.145 232.576Z" fill="#2F2E41"/>
<path d="M551 40.3663H0V383.48H551V40.3663Z" fill="#E6E6E6"/>
<path d="M137.865 106.466H36.949V172.061H137.865V106.466Z" fill="white"/>
<path d="M263.26 106.466H162.344V172.061H263.26V106.466Z" fill="white"/>
<path d="M388.656 106.466H287.74V172.061H388.656V106.466Z" fill="white"/>
<path d="M514.051 106.466H413.135V172.061H514.051V106.466Z" fill="white"/>
<path d="M137.865 199.309H36.949V264.904H137.865V199.309Z" fill="white"/>
<path d="M263.26 199.309H162.344V264.904H263.26V199.309Z" fill="white"/>
<path d="M388.656 199.309H287.74V264.904H388.656V199.309Z" fill="white"/>
<path d="M514.051 199.309H413.135V264.904H514.051V199.309Z" fill="white"/>
<path d="M137.865 292.151H36.949V357.746H137.865V292.151Z" fill="white"/>
<path d="M263.26 292.151H162.344V357.746H263.26V292.151Z" fill="white"/>
<path d="M388.656 292.151H287.74V357.746H388.656V292.151Z" fill="white"/>
<path d="M514.051 292.151H413.135V357.746H514.051V292.151Z" fill="white"/>
<path d="M144.309 80.7326C152.67 80.7326 159.447 73.9554 159.447 65.5952C159.447 57.2351 152.67 50.4579 144.309 50.4579C135.949 50.4579 129.172 57.2351 129.172 65.5952C129.172 73.9554 135.949 80.7326 144.309 80.7326Z" fill="white"/>
<path d="M394.581 80.7326C402.941 80.7326 409.718 73.9553 409.718 65.5952C409.718 57.2351 402.941 50.4579 394.581 50.4579C386.22 50.4579 379.443 57.2351 379.443 65.5952C379.443 73.9553 386.22 80.7326 394.581 80.7326Z" fill="white"/>
<path d="M150.365 0H138.255V69.6319H150.365V0Z" fill="#E6E6E6"/>
<path d="M400.635 0H388.526V69.6319H400.635V0Z" fill="#E6E6E6"/>
<path d="M486.414 139.264C486.409 144.744 484.426 150.038 480.83 154.174C477.234 158.309 472.267 161.008 466.841 161.775C461.414 162.542 455.893 161.324 451.293 158.346C446.692 155.369 443.32 150.831 441.797 145.567C440.274 140.302 440.702 134.665 443.002 129.691C445.302 124.717 449.32 120.74 454.318 118.49C459.315 116.241 464.956 115.871 470.205 117.448C475.453 119.025 479.957 122.442 482.887 127.073C485.195 130.72 486.418 134.948 486.414 139.264V139.264Z" fill="#6C63FF"/>
<path d="M482.887 127.073L460.423 149.533C459.011 147.347 451.146 137.189 451.146 137.189C452.154 136.17 453.229 135.221 454.365 134.347L460.888 143.044L480.256 123.675C481.239 124.722 482.12 125.86 482.887 127.073V127.073Z" fill="white"/>
<path d="M235.623 232.106C235.618 237.586 233.635 242.881 230.039 247.016C226.443 251.152 221.476 253.851 216.05 254.617C210.623 255.384 205.102 254.167 200.502 251.189C195.901 248.211 192.529 243.673 191.006 238.409C189.483 233.145 189.911 227.507 192.211 222.533C194.511 217.559 198.529 213.582 203.527 211.333C208.524 209.084 214.165 208.714 219.414 210.29C224.662 211.867 229.166 215.285 232.096 219.916C234.404 223.563 235.627 227.79 235.623 232.106V232.106Z" fill="#6C63FF"/>
<path d="M232.096 219.916L209.632 242.376C208.22 240.19 200.355 230.032 200.355 230.032C201.363 229.013 202.438 228.063 203.574 227.189L210.097 235.886L229.466 216.518C230.448 217.565 231.329 218.702 232.096 219.916V219.916Z" fill="white"/>
<path d="M110.228 232.106C110.222 237.587 108.24 242.881 104.644 247.016C101.048 251.152 96.0804 253.851 90.654 254.618C85.2277 255.384 79.7069 254.167 75.1062 251.189C70.5054 248.211 67.1338 243.673 65.6107 238.409C64.0877 233.145 64.5155 227.508 66.8157 222.533C69.1158 217.559 73.1338 213.582 78.1312 211.333C83.1287 209.084 88.7699 208.714 94.0185 210.29C99.267 211.867 103.77 215.285 106.701 219.916C109.008 223.563 110.232 227.791 110.228 232.106V232.106Z" fill="#6C63FF"/>
<path d="M106.701 219.916L84.2368 242.376C82.8249 240.19 74.9591 230.032 74.9591 230.032C75.9672 229.013 77.0429 228.063 78.1789 227.189L84.7015 235.886L104.07 216.518C105.052 217.565 105.933 218.702 106.701 219.916V219.916Z" fill="white"/>
</g>
<defs>
<clipPath id="clip0_30_3">
<rect width="866.331" height="605.74" fill="white"/>
</clipPath>
</defs>
</svg>
